<svg width="29" height="29" fill="none" xmlns="http://www.w3.org/2000/svg"><path d="M5.75 21.444H4.5c-.663 0-1.299-.292-1.768-.813A2.942 2.942 0 0 1 2 18.667V4.777c0-.736.263-1.442.732-1.963C3.202 2.293 3.837 2 4.5 2h20c.663 0 1.299.293 1.768.814.469.52.732 1.227.732 1.964v13.889c0 .736-.263 1.443-.732 1.964-.47.52-1.105.813-1.768.813h-1.25" stroke="#fff" stroke-width="3" stroke-linecap="round" stroke-linejoin="round"/><path d="M14.5 18.667 20.75 27H8.25l6.25-8.333Z" stroke="#fff" stroke-width="3" stroke-linecap="round" stroke-linejoin="round"/></svg>